<?xml version="1.0" encoding="utf-8"?>
<?xml-stylesheet type="text/xsl" href="rss1.xsl"?>
<rss version="2.0" xmlns:atom="http://www.w3.org/2005/Atom" xmlns:content="http://purl.org/rss/1.0/modules/content/" xmlns:dc="http://purl.org/dc/elements/1.1/" xmlns:media="http://search.yahoo.com/mrss/">
<channel>
 <title>Getty</title>
 <link>http://www.gettyimg.com/</link>
 <atom:link href="http://www.gettyimg.com/" rel="self" type="application/rss+xml" />

 
                <item>
                <title><![CDATA[【Apple Music】WEB-RiP - Tate McRae - run for the hills [Apple HD Music Video]]]></title>
                <link><![CDATA[https://sharemania.us/threads/tate-mcrae-run-for-the-hills-apple-hd-music-video.242832/]]></link>
                <description><![CDATA[<article>
<blockquote class="messageText SelectQuoteContainer ugc baseHtml">
<span style="font-size: 22px"><b>Tate McRae - run for the hills [Apple HD Music Video]</b></span><br>
<br>
<img src="https://imgur.com/mzUhjkZ.jpg" class="bbCodeImage LbImage" alt="[​IMG]" data-url="https://imgur.com/mzUhjkZ.jpg" style=""><br>
<br>
<div class="bbCodeBlock bbCodeCode">
<div class="type">Code:</div>
<pre>General
Format                         : MPEG-4
Codec ID                       : M4V  (isom/iso4/M4V /mp42)
File size                      : 181 MiB
Duration                       : 2 min 25 s
Overall bit rate mode          : Variable
Overall bit rate               : 10.4 Mb/s
Movie name                     : run for the hills
Performer                      : Tate McRae
Genre                          : Pop
ContentType                    : Music Video
Recorded date                  : UTC 2023-12-10 08:00:00
Encoded date                   : UTC 2024-03-15 14:15:38
Tagged date                    : UTC 2024-03-15 14:15:38
Copyright                      : ℗ (C) 2023 RCA Records, a division of Sony Music Entertainment
Cover                          : Yes
Rating                         : None
GenreID                        : 1614
AppleStoreCountry              : Canada
AlbumTitleID                   : 1446365464
AppleStoreCatalogID            : 1720082291

Video
ID                             : 2
Format                         : AVC
Format/Info                    : Advanced Video Codec
Format profile                 : High@L4
Format settings                : CABAC / 4 Ref Frames
Format settings, CABAC         : Yes
Format settings, Reference fra : 4 frames
Format settings, GOP           : M=2, N=95
Codec ID                       : avc1
Codec ID/Info                  : Advanced Video Coding
Duration                       : 2 min 25 s
Bit rate                       : 10.2 Mb/s
Maximum bit rate               : 18.6 Mb/s
Width                          : 1 784 pixels
Height                         : 1 080 pixels
Display aspect ratio           : 5:3
Frame rate mode                : Constant
Frame rate                     : 24.000 FPS
Color space                    : YUV
Chroma subsampling             : 4:2:0
Bit depth                      : 8 bits
Scan type                      : Progressive
Bits/(Pixel*Frame)             : 0.220
Stream size                    : 176 MiB (97%)
Title                          : Core Media Video
Encoded date                   : UTC 2024-02-15 12:52:29
Tagged date                    : UTC 2024-03-15 14:16:15
Color range                    : Limited
Color primaries                : BT.709
Transfer characteristics       : BT.709
Matrix coefficients            : BT.709
Codec configuration box        : avcC

Audio
ID                             : 1
Format                         : AAC LC
Format/Info                    : Advanced Audio Codec Low Complexity
Codec ID                       : mp4a-40-2
Duration                       : 2 min 25 s
Duration_LastFrame             : -1 ms
Bit rate mode                  : Variable
Bit rate                       : 265 kb/s
Maximum bit rate               : 341 kb/s
Channel(s)                     : 2 channels
Channel layout                 : L R
Sampling rate                  : 48.0 kHz
Frame rate                     : 46.875 FPS (1024 SPF)
Compression mode               : Lossy
Stream size                    : 4.60 MiB (3%)
Title                          : Core Media Audio
Encoded date                   : UTC 2024-02-15 12:52:25
Tagged date                    : UTC 2024-03-15 14:16:15
</pre>
</div>
<div class="bbCodeBlock bbCodeVfcHH HiddenContent">
<div class="attribution type">Hidden Content:</div>
<blockquote>You must reply before you can see the hidden data contained here.</blockquote>
</div>
<div class="messageTextEndMarker">&nbsp;</div>
</blockquote>
</article>]]></description>
                <author><![CDATA[Mu$iC @$YLUM]]></author>
                </item>

                </channel></rss>